<mxfile host="app.diagrams.net" modified="2022-04-30T16:58:02.881Z" agent="5.0 (Windows NT 10.0; Win64; x64) AppleWebKit/537.36 (KHTML, like Gecko) Chrome/100.0.4896.127 Safari/537.36" etag="MLHb9WIDhWfFdmkMVfvl" version="17.5.0" type="github">
  <diagram id="_RDZz5U6NY0uEBNLupeu" name="Page-1">
    <mxGraphModel dx="1422" dy="762" grid="1" gridSize="10" guides="1" tooltips="1" connect="1" arrows="1" fold="1" page="1" pageScale="1" pageWidth="827" pageHeight="1169" math="0" shadow="0">
      <root>
        <mxCell id="0" />
        <mxCell id="1" parent="0" />
        <mxCell id="3QGKUlYc2ESPHffnxDu4-6" value="" style="group" vertex="1" connectable="0" parent="1">
          <mxGeometry x="293" y="139" width="440" height="340" as="geometry" />
        </mxCell>
        <mxCell id="3QGKUlYc2ESPHffnxDu4-2" value="" style="rounded=1;whiteSpace=wrap;html=1;dashed=1;" vertex="1" parent="3QGKUlYc2ESPHffnxDu4-6">
          <mxGeometry width="440" height="340" as="geometry" />
        </mxCell>
        <mxCell id="3QGKUlYc2ESPHffnxDu4-4" value="マルチプレクサ" style="rounded=1;whiteSpace=wrap;html=1;dashed=1;" vertex="1" parent="3QGKUlYc2ESPHffnxDu4-6">
          <mxGeometry x="33" y="50" width="130" height="60" as="geometry" />
        </mxCell>
        <mxCell id="3QGKUlYc2ESPHffnxDu4-10" value="サーバー" style="text;html=1;strokeColor=none;fillColor=none;align=center;verticalAlign=middle;whiteSpace=wrap;rounded=0;dashed=1;" vertex="1" parent="3QGKUlYc2ESPHffnxDu4-6">
          <mxGeometry x="167" y="10" width="80" height="30" as="geometry" />
        </mxCell>
        <mxCell id="3QGKUlYc2ESPHffnxDu4-16" value="テンプレート&lt;br&gt;エンジン" style="rounded=1;whiteSpace=wrap;html=1;dashed=1;" vertex="1" parent="3QGKUlYc2ESPHffnxDu4-6">
          <mxGeometry x="33" y="140" width="130" height="60" as="geometry" />
        </mxCell>
        <mxCell id="3QGKUlYc2ESPHffnxDu4-17" value="テンプレート" style="rounded=1;whiteSpace=wrap;html=1;dashed=1;" vertex="1" parent="3QGKUlYc2ESPHffnxDu4-6">
          <mxGeometry x="33" y="230" width="130" height="60" as="geometry" />
        </mxCell>
        <mxCell id="3QGKUlYc2ESPHffnxDu4-18" value="ハンドラ" style="shape=hexagon;perimeter=hexagonPerimeter2;whiteSpace=wrap;html=1;fixedSize=1;dashed=1;" vertex="1" parent="3QGKUlYc2ESPHffnxDu4-6">
          <mxGeometry x="237" y="50" width="120" height="60" as="geometry" />
        </mxCell>
        <mxCell id="3QGKUlYc2ESPHffnxDu4-19" value="ハンドラ" style="shape=hexagon;perimeter=hexagonPerimeter2;whiteSpace=wrap;html=1;fixedSize=1;dashed=1;" vertex="1" parent="3QGKUlYc2ESPHffnxDu4-6">
          <mxGeometry x="237" y="140" width="120" height="60" as="geometry" />
        </mxCell>
        <mxCell id="3QGKUlYc2ESPHffnxDu4-20" value="ハンドラ" style="shape=hexagon;perimeter=hexagonPerimeter2;whiteSpace=wrap;html=1;fixedSize=1;dashed=1;" vertex="1" parent="3QGKUlYc2ESPHffnxDu4-6">
          <mxGeometry x="237" y="230" width="120" height="60" as="geometry" />
        </mxCell>
        <mxCell id="3QGKUlYc2ESPHffnxDu4-21" value="" style="endArrow=classic;html=1;rounded=0;entryX=0;entryY=0.25;entryDx=0;entryDy=0;exitX=1;exitY=0.75;exitDx=0;exitDy=0;" edge="1" parent="3QGKUlYc2ESPHffnxDu4-6" source="3QGKUlYc2ESPHffnxDu4-4" target="3QGKUlYc2ESPHffnxDu4-19">
          <mxGeometry width="50" height="50" relative="1" as="geometry">
            <mxPoint x="97" y="330" as="sourcePoint" />
            <mxPoint x="147" y="280" as="targetPoint" />
          </mxGeometry>
        </mxCell>
        <mxCell id="3QGKUlYc2ESPHffnxDu4-22" value="" style="endArrow=classic;html=1;rounded=0;entryX=1;entryY=0.5;entryDx=0;entryDy=0;exitX=0;exitY=0.5;exitDx=0;exitDy=0;" edge="1" parent="3QGKUlYc2ESPHffnxDu4-6" source="3QGKUlYc2ESPHffnxDu4-19" target="3QGKUlYc2ESPHffnxDu4-16">
          <mxGeometry width="50" height="50" relative="1" as="geometry">
            <mxPoint x="173" y="105" as="sourcePoint" />
            <mxPoint x="255.57142857142867" y="167.1428571428571" as="targetPoint" />
          </mxGeometry>
        </mxCell>
        <mxCell id="3QGKUlYc2ESPHffnxDu4-1" value="クライアント" style="rounded=1;whiteSpace=wrap;html=1;" vertex="1" parent="1">
          <mxGeometry x="70" y="189" width="120" height="60" as="geometry" />
        </mxCell>
        <mxCell id="3QGKUlYc2ESPHffnxDu4-3" value="" style="endArrow=classic;html=1;rounded=0;exitX=1;exitY=0.25;exitDx=0;exitDy=0;entryX=0;entryY=0.25;entryDx=0;entryDy=0;" edge="1" parent="1" source="3QGKUlYc2ESPHffnxDu4-1" target="3QGKUlYc2ESPHffnxDu4-4">
          <mxGeometry width="50" height="50" relative="1" as="geometry">
            <mxPoint x="390" y="499" as="sourcePoint" />
            <mxPoint x="440" y="449" as="targetPoint" />
          </mxGeometry>
        </mxCell>
        <mxCell id="3QGKUlYc2ESPHffnxDu4-5" value="リクエスト" style="text;html=1;strokeColor=none;fillColor=none;align=center;verticalAlign=middle;whiteSpace=wrap;rounded=0;dashed=1;" vertex="1" parent="1">
          <mxGeometry x="200" y="179" width="80" height="30" as="geometry" />
        </mxCell>
        <mxCell id="3QGKUlYc2ESPHffnxDu4-8" value="" style="endArrow=classic;html=1;rounded=0;exitX=0;exitY=0.75;exitDx=0;exitDy=0;entryX=1;entryY=0.75;entryDx=0;entryDy=0;" edge="1" parent="1" source="3QGKUlYc2ESPHffnxDu4-4" target="3QGKUlYc2ESPHffnxDu4-1">
          <mxGeometry width="50" height="50" relative="1" as="geometry">
            <mxPoint x="200" y="214" as="sourcePoint" />
            <mxPoint x="323" y="214" as="targetPoint" />
          </mxGeometry>
        </mxCell>
        <mxCell id="3QGKUlYc2ESPHffnxDu4-9" value="レスポンス" style="text;html=1;strokeColor=none;fillColor=none;align=center;verticalAlign=middle;whiteSpace=wrap;rounded=0;dashed=1;" vertex="1" parent="1">
          <mxGeometry x="200" y="239" width="80" height="30" as="geometry" />
        </mxCell>
        <mxCell id="3QGKUlYc2ESPHffnxDu4-23" value="" style="endArrow=classic;startArrow=classic;html=1;rounded=0;entryX=0.5;entryY=1;entryDx=0;entryDy=0;" edge="1" parent="1" target="3QGKUlYc2ESPHffnxDu4-16">
          <mxGeometry width="50" height="50" relative="1" as="geometry">
            <mxPoint x="391" y="369" as="sourcePoint" />
            <mxPoint x="440" y="419" as="targetPoint" />
          </mxGeometry>
        </mxCell>
        <mxCell id="3QGKUlYc2ESPHffnxDu4-24" value="&lt;h1&gt;マルチプレクサ&lt;/h1&gt;&lt;div&gt;URLを調べ、所定のハンドラにリダイレクトする&lt;/div&gt;&lt;div&gt;&lt;br&gt;&lt;/div&gt;" style="text;html=1;strokeColor=#666666;fillColor=#f5f5f5;spacing=5;spacingTop=-20;whiteSpace=wrap;overflow=hidden;rounded=0;dashed=1;fontColor=#333333;" vertex="1" parent="1">
          <mxGeometry x="230" y="40" width="320" height="80" as="geometry" />
        </mxCell>
        <mxCell id="3QGKUlYc2ESPHffnxDu4-25" value="&lt;h1&gt;ハンドラ&lt;/h1&gt;&lt;div&gt;テンプレートエンジンにデータを提供する&lt;/div&gt;&lt;div&gt;&lt;br&gt;&lt;/div&gt;" style="text;html=1;strokeColor=#666666;fillColor=#f5f5f5;spacing=5;spacingTop=-20;whiteSpace=wrap;overflow=hidden;rounded=0;dashed=1;fontColor=#333333;" vertex="1" parent="1">
          <mxGeometry x="670" y="279" width="320" height="80" as="geometry" />
        </mxCell>
      </root>
    </mxGraphModel>
  </diagram>
</mxfile>
